<svg xmlns="http://www.w3.org/2000/svg" viewBox="0 0 100 100">
  <defs>
    <linearGradient id="leafGradient" x1="0%" y1="100%" x2="100%" y2="0%">
      <stop offset="0%" style="stop-color:#c92a2a;stop-opacity:1" />
      <stop offset="25%" style="stop-color:#e8590c;stop-opacity:1" />
      <stop offset="50%" style="stop-color:#f76707;stop-opacity:1" />
      <stop offset="75%" style="stop-color:#ffa94d;stop-opacity:1" />
      <stop offset="100%" style="stop-color:#ffd43b;stop-opacity:1" />
    </linearGradient>
    <linearGradient id="circleGradient" x1="0%" y1="0%" x2="100%" y2="100%">
      <stop offset="0%" style="stop-color:#1a1a2e;stop-opacity:1" />
      <stop offset="100%" style="stop-color:#16213e;stop-opacity:1" />
    </linearGradient>
  </defs>
  <circle cx="50" cy="50" r="48" fill="url(#circleGradient)" stroke="#3b82f6" stroke-width="2"/>
  <g transform="translate(50, 52) rotate(15)">
    <path fill="url(#leafGradient)" d="M0,-35 C3,-28 8,-22 5,-15 C10,-18 15,-12 12,-5 C18,-8 20,-2 15,3 C22,3 22,10 16,12 C20,16 15,20 10,18 C5,25 0,22 0,18 C-5,22 -10,25 -10,18 C-15,20 -20,16 -16,12 C-22,10 -22,3 -15,3 C-20,-2 -18,-8 -12,-5 C-15,-12 -10,-18 -5,-15 C-8,-22 -3,-28 0,-35 Z"/>
    <path fill="#8b4513" d="M0,18 L-2,35 L2,35 Z" transform="rotate(-10)"/>
  </g>
</svg>
